 <svg  version="1.0" xmlns="http://www.w3.org/2000/svg"  width="300.000000pt" height="154.000000pt" viewBox="0 0 300.000000 154.000000"  preserveAspectRatio="xMidYMid meet">  <g transform="translate(0.000000,154.000000) scale(0.100000,-0.100000)" fill="#e0bba1" stroke="none"> <path d="M1438 1323 c-35 -22 -37 -44 -33 -346 3 -276 6 -287 69 -287 42 1 63 14 139 87 122 117 139 150 97 188 -11 10 -20 22 -20 27 0 4 54 8 120 8 66 0 120 3 120 8 0 23 -47 33 -148 32 -59 -1 -114 1 -122 4 -9 4 -15 18 -14 34 l1 27 88 0 c61 0 90 4 93 13 2 6 -1 12 -6 12 -6 0 -33 23 -61 50 l-51 50 -106 0 c-98 0 -105 -1 -98 -17 12 -23 11 -308 0 -350 -6 -22 -5 -33 2 -33 12 0 105 95 111 113 2 6 10 18 18 25 11 11 18 10 42 -10 29 -23 41 -58 20 -58 -5 0 -48 -37 -95 -82 -83 -81 -120 -107 -157 -108 -16 0 -17 19 -15 298 l3 297 151 3 151 3 83 -85 c101 -104 109 -115 111 -157 3 -43 9 -55 20 -38 15 24 10 80 -10 113 -11 17 -58 68 -105 114 l-86 82 -142 0 c-115 0 -148 -4 -170 -17z m271 -147 c25 -23 19 -36 -16 -36 -31 0 -73 -36 -73 -62 0 -11 7 -32 15 -48 14 -28 14 -29 -19 -50 -19 -11 -36 -26 -38 -32 -2 -6 -10 -8 -16 -4 -17 10 -17 242 1 250 27 12 126 0 146 -18z"/> <path d="M50 1173 c-35 -13 -50 -37 -50 -78 0 -41 5 -48 141 -189 164 -170 190 -191 225 -182 34 9 66 63 58 99 l-6 27 96 0 c53 0 96 -2 96 -5 0 -2 -11 -15 -25 -29 -32 -32 -32 -70 0 -101 l24 -25 229 0 230 0 48 -48 c122 -120 186 -191 180 -201 -5 -7 -60 -11 -157 -11 -89 0 -149 -4 -149 -10 0 -24 48 -30 232 -30 l193 0 -166 170 -167 170 -234 0 c-169 0 -237 -3 -246 -12 -9 -9 -12 -1 -12 35 l0 48 206 -1 c113 -1 208 0 210 3 2 2 -12 21 -33 43 l-36 39 -286 1 c-157 0 -299 4 -315 8 -26 8 -27 7 -17 -11 5 -11 26 -33 46 -48 37 -30 45 -52 20 -61 -8 -3 -17 -14 -20 -24 -4 -14 -39 17 -162 144 -86 88 -161 163 -165 164 -4 2 -8 22 -8 45 l0 42 375 -2 375 -2 148 -153 c81 -84 243 -248 360 -366 116 -117 212 -217 212 -222 0 -5 147 140 328 322 180 182 348 351 374 376 l46 44 366 1 c401 2 370 7 366 -58 -1 -24 -29 -57 -143 -172 -78 -78 -143 -147 -145 -152 -4 -13 -39 -15 -44 -2 -5 12 -48 24 -48 13 0 -15 47 -42 74 -42 18 0 64 39 175 148 l151 149 0 70 c0 59 -3 71 -17 75 -41 10 -712 8 -739 -2 -16 -6 -184 -167 -377 -361 -191 -192 -352 -349 -357 -349 -12 0 -304 291 -538 535 -84 88 -166 165 -180 172 -28 12 -710 18 -742 6z"/> <path d="M140 1065 c0 -3 21 -28 47 -55 l47 -50 313 0 c202 0 313 4 313 10 0 6 -4 10 -8 10 -5 0 -30 20 -56 44 l-46 44 -305 2 c-168 0 -305 -2 -305 -5z m598 -52 c3 -10 -48 -13 -231 -13 -232 0 -272 3 -261 21 9 15 486 7 492 -8z"/> <path d="M2254 1046 c-42 -29 -94 -73 -94 -80 0 -3 139 -6 308 -6 l308 0 52 49 c29 27 52 52 52 55 0 3 -134 5 -298 4 -285 -1 -299 -2 -328 -22z m471 -16 c56 0 58 -1 42 -17 -15 -15 -40 -17 -184 -18 -223 -1 -321 6 -302 22 20 16 47 18 224 16 88 -1 187 -3 220 -3z"/> <path d="M2106 882 c-10 -2 -31 -15 -46 -28 -15 -14 -35 -31 -46 -39 -23 -17 -43 -16 214 -15 l202 1 0 -38 0 -38 -245 3 -246 3 -127 -131 c-70 -72 -132 -136 -138 -143 -6 -6 -24 -23 -40 -37 l-29 -25 193 -3 c185 -2 232 3 232 28 0 6 -62 10 -156 10 -128 0 -155 2 -152 14 2 8 53 66 115 130 l112 116 232 1 c229 1 232 1 256 25 32 32 30 70 -8 105 l-31 29 111 0 111 0 -12 -25 c-18 -40 -2 -41 38 -1 20 20 40 36 45 36 5 0 9 6 9 13 0 9 -64 12 -288 12 -158 0 -296 -2 -306 -3z"/> <path d="M969 405 c-20 -32 -18 -65 3 -89 l23 -26 290 0 c752 -1 731 -2 755 18 25 20 31 75 11 95 -8 8 -11 -3 -11 -36 l0 -47 -529 0 -530 0 -3 48 c-2 26 -6 43 -9 37z"/> </g> </svg>